<svg xmlns="http://www.w3.org/2000/svg" version="1.1" xmlns:xlink="http://www.w3.org/1999/xlink" xmlns:svgjs="http://svgjs.dev/svgjs" width="1000" height="623" viewBox="0 0 1000 623"><g transform="matrix(1,0,0,1,-0.6060605018919887,0.2522267206477409)"><svg viewBox="0 0 396 247" data-background-color="#ffffff" preserveAspectRatio="xMidYMid meet" height="623" width="1000" xmlns="http://www.w3.org/2000/svg" xmlns:xlink="http://www.w3.org/1999/xlink"><g id="tight-bounds" transform="matrix(1,0,0,1,0.24000004125082341,-0.09999999999999432)"><svg viewBox="0 0 395.52 247.2" height="247.2" width="395.52"><g><svg viewBox="0 0 395.52 247.2" height="247.2" width="395.52"><g transform="matrix(1,0,0,1,0,52.48944881889764)"><svg viewBox="0 0 395.52 142.2211023622047" height="142.2211023622047" width="395.52"><g><svg viewBox="0 0 395.52 142.2211023622047" height="142.2211023622047" width="395.52"><g><svg viewBox="0 0 395.52 142.2211023622047" height="142.2211023622047" width="395.52"><g><svg viewBox="0 0 395.52 142.2211023622047" height="142.2211023622047" width="395.52"><g><svg viewBox="0 0 395.52 142.2211023622047" height="142.2211023622047" width="395.52"><g transform="matrix(1,0,0,1,0,0)"><svg width="395.52" viewBox="2.200000047683716 -37.600006103515625 228.60000610351562 79.20001220703125" height="142.2211023622047" data-palette-color="#a855f7"><svg></svg><svg></svg><g class="undefined-text-0" data-fill-palette-color="primary" id="text-0"><path xmlns="http://www.w3.org/2000/svg" d="M5.2-36.5v0c0-0.4 0.183-0.6 0.55-0.6v0h21.75c0.3 0 0.45 0.15 0.45 0.45v0l-0.05 2.05c0 0.333-0.167 0.5-0.5 0.5v0h-17.85c-0.4 0-0.6 0.183-0.6 0.55v0 12.85c0 0.333 0.183 0.5 0.55 0.5v0h13.55c0.3 0 0.45 0.15 0.45 0.45v0 2.1c0 0.133-0.023 0.233-0.07 0.3-0.053 0.067-0.18 0.1-0.38 0.1v0h-13.6c-0.333 0-0.5 0.167-0.5 0.5v0 13.25c0 0.333 0.167 0.5 0.5 0.5v0h18.65c0.367 0 0.55 0.15 0.55 0.45v0 2.1c0 0.133-0.04 0.24-0.12 0.32-0.087 0.087-0.213 0.13-0.38 0.13v0h-22.35c-0.4 0-0.6-0.2-0.6-0.6v0zM62.35-0.85v0c0.233 0.333 0.31 0.557 0.23 0.67-0.087 0.12-0.247 0.18-0.48 0.18v0h-3c-0.267 0-0.483-0.117-0.65-0.35v0l-10.1-15.05c-0.167-0.3-0.323-0.45-0.47-0.45-0.153 0-0.363 0.2-0.63 0.6v0l-9.95 14.9c-0.067 0.133-0.167 0.223-0.3 0.27-0.133 0.053-0.267 0.08-0.4 0.08v0h-2.65c-0.233 0-0.383-0.06-0.45-0.18-0.067-0.113 0-0.337 0.2-0.67v0l11.75-17.55c0.167-0.2 0.243-0.383 0.23-0.55-0.02-0.167-0.113-0.367-0.28-0.6v0l-11.35-16.95c-0.067-0.1-0.083-0.227-0.05-0.38 0.033-0.147 0.133-0.22 0.3-0.22v0h3.2c0.233 0 0.393 0.027 0.48 0.08 0.08 0.047 0.153 0.137 0.22 0.27v0l9.4 14.2c0.167 0.2 0.317 0.3 0.45 0.3 0.133 0 0.283-0.117 0.45-0.35v0l9.4-14.15c0.067-0.133 0.15-0.223 0.25-0.27 0.1-0.053 0.233-0.08 0.4-0.08v0h2.95c0.2 0 0.31 0.057 0.33 0.17 0.013 0.12-0.03 0.23-0.13 0.33v0l-11.35 16.85c-0.1 0.167-0.16 0.323-0.18 0.47-0.013 0.153 0.047 0.33 0.18 0.53v0zM96.25-26.45v0c0 2.433-0.567 4.433-1.7 6-1.133 1.567-2.683 2.723-4.65 3.47-1.967 0.753-4.217 1.13-6.75 1.13v0h-8.8c-0.3 0-0.45 0.15-0.45 0.45v0 14.8c0 0.4-0.2 0.6-0.6 0.6v0h-2.6c-0.2 0-0.34-0.043-0.42-0.13-0.087-0.08-0.13-0.22-0.13-0.42v0-35.95c0-0.4 0.183-0.6 0.55-0.6v0h11.95c2.633 0 4.977 0.36 7.03 1.08 2.047 0.713 3.653 1.853 4.82 3.42 1.167 1.567 1.75 3.617 1.75 6.15zM92.35-26.6v0c0-1.867-0.4-3.35-1.2-4.45-0.8-1.1-1.933-1.893-3.4-2.38-1.467-0.48-3.217-0.72-5.25-0.72v0h-8c-0.4 0-0.6 0.183-0.6 0.55v0 14.15c0 0.4 0.15 0.6 0.45 0.6v0h8.5c2.867 0 5.167-0.61 6.9-1.83 1.733-1.213 2.6-3.187 2.6-5.92zM104.3-36.5v0c0-0.4 0.183-0.6 0.55-0.6v0h21.75c0.3 0 0.45 0.15 0.45 0.45v0l-0.05 2.05c0 0.333-0.167 0.5-0.5 0.5v0h-17.85c-0.4 0-0.6 0.183-0.6 0.55v0 12.85c0 0.333 0.183 0.5 0.55 0.5v0h13.55c0.3 0 0.45 0.15 0.45 0.45v0 2.1c0 0.133-0.027 0.233-0.08 0.3-0.047 0.067-0.17 0.1-0.37 0.1v0h-13.6c-0.333 0-0.5 0.167-0.5 0.5v0 13.25c0 0.333 0.167 0.5 0.5 0.5v0h18.65c0.367 0 0.55 0.15 0.55 0.45v0 2.1c0 0.133-0.04 0.24-0.12 0.32-0.087 0.087-0.213 0.13-0.38 0.13v0h-22.35c-0.4 0-0.6-0.2-0.6-0.6v0zM160-37.1h2.3c0.333 0 0.5 0.183 0.5 0.55v0 36c0 0.167-0.043 0.3-0.13 0.4-0.08 0.1-0.22 0.15-0.42 0.15v0h-1.75c-0.2 0-0.383-0.017-0.55-0.05-0.167-0.033-0.317-0.133-0.45-0.3v0l-20.15-29.5c-0.167-0.233-0.31-0.333-0.43-0.3-0.113 0.033-0.17 0.15-0.17 0.35v0 29.25c0 0.367-0.2 0.55-0.6 0.55v0h-2.15c-0.4 0-0.6-0.2-0.6-0.6v0-35.9c0-0.4 0.183-0.6 0.55-0.6v0h2.1c0.233 0 0.407 0.027 0.52 0.08 0.12 0.047 0.247 0.17 0.38 0.37v0l19.8 29.1c0.2 0.233 0.373 0.317 0.52 0.25 0.153-0.067 0.23-0.2 0.23-0.4v0-28.85c0-0.367 0.167-0.55 0.5-0.55zM192.95-30.65v0c-0.933-1.1-2.117-2.033-3.55-2.8-1.433-0.767-3.183-1.15-5.25-1.15v0c-2.6 0-4.667 0.6-6.2 1.8-1.533 1.2-2.3 2.883-2.3 5.05v0c0 0.567 0.127 1.223 0.38 1.97 0.247 0.753 0.78 1.497 1.6 2.23 0.813 0.733 2.037 1.4 3.67 2v0l7.1 2.45c3 1 5.127 2.3 6.38 3.9 1.247 1.6 1.87 3.5 1.87 5.7v0c0 2.1-0.517 3.9-1.55 5.4-1.033 1.5-2.507 2.64-4.42 3.42-1.92 0.787-4.213 1.18-6.88 1.18v0c-1.933 0-3.71-0.233-5.33-0.7-1.613-0.467-3.053-1.157-4.32-2.07-1.267-0.92-2.383-2.063-3.35-3.43v0c-0.167-0.2-0.223-0.393-0.17-0.58 0.047-0.18 0.203-0.37 0.47-0.57v0l1.3-0.9c0.3-0.167 0.523-0.25 0.67-0.25 0.153 0 0.313 0.1 0.48 0.3v0c0.9 1.133 1.8 2.09 2.7 2.87 0.9 0.787 1.933 1.37 3.1 1.75 1.167 0.387 2.617 0.58 4.35 0.58v0c2.767 0 5-0.517 6.7-1.55 1.7-1.033 2.55-2.75 2.55-5.15v0c0-0.9-0.167-1.71-0.5-2.43-0.333-0.713-0.923-1.397-1.77-2.05-0.853-0.647-2.113-1.27-3.78-1.87v0l-7.55-2.75c-1.833-0.667-3.283-1.483-4.35-2.45-1.067-0.967-1.833-2.033-2.3-3.2-0.467-1.167-0.7-2.333-0.7-3.5v0c0-2.133 0.51-3.95 1.53-5.45 1.013-1.5 2.437-2.66 4.27-3.48 1.833-0.813 3.967-1.22 6.4-1.22v0c1.633 0 3.127 0.2 4.48 0.6 1.347 0.4 2.603 0.957 3.77 1.67 1.167 0.72 2.2 1.597 3.1 2.63v0c0.1 0.133 0.177 0.267 0.23 0.4 0.047 0.133-0.03 0.283-0.23 0.45v0l-1.8 1.45c-0.167 0.1-0.29 0.123-0.37 0.07-0.087-0.047-0.23-0.153-0.43-0.32zM204.75-36.5v0c0-0.4 0.183-0.6 0.55-0.6v0h21.75c0.3 0 0.45 0.15 0.45 0.45v0l-0.05 2.05c0 0.333-0.167 0.5-0.5 0.5v0h-17.85c-0.4 0-0.6 0.183-0.6 0.55v0 12.85c0 0.333 0.183 0.5 0.55 0.5v0h13.55c0.3 0 0.45 0.15 0.45 0.45v0 2.1c0 0.133-0.023 0.233-0.07 0.3-0.053 0.067-0.18 0.1-0.38 0.1v0h-13.6c-0.333 0-0.5 0.167-0.5 0.5v0 13.25c0 0.333 0.167 0.5 0.5 0.5v0h18.65c0.367 0 0.55 0.15 0.55 0.45v0 2.1c0 0.133-0.04 0.24-0.12 0.32-0.087 0.087-0.213 0.13-0.38 0.13v0h-22.35c-0.4 0-0.6-0.2-0.6-0.6v0z" fill="#a855f7" fill-rule="nonzero" stroke="none" stroke-width="1" stroke-linecap="butt" stroke-linejoin="miter" stroke-miterlimit="10" stroke-dasharray="" stroke-dashoffset="0" font-family="none" font-weight="none" font-size="none" text-anchor="none" style="mix-blend-mode: normal" data-fill-palette-color="primary" opacity="1"></path><path xmlns="http://www.w3.org/2000/svg" d="M2.2 6.55v-2.05c0-0.167 0.033-0.293 0.1-0.38 0.067-0.08 0.2-0.12 0.4-0.12v0h26.4c0.2 0 0.333 0.04 0.4 0.12 0.067 0.087 0.1 0.213 0.1 0.38v0 2.05c0 0.3-0.167 0.45-0.5 0.45v0h-10.35c-0.367 0-0.55 0.15-0.55 0.45v0 33.05c0 0.4-0.167 0.6-0.5 0.6v0h-2.7c-0.367 0-0.55-0.2-0.55-0.6v0-33.05c0-0.3-0.167-0.45-0.5-0.45v0h-11.25c-0.333 0-0.5-0.15-0.5-0.45zM62.6 40.25v0c0.067 0.2 0.05 0.39-0.05 0.57-0.1 0.187-0.25 0.28-0.45 0.28v0h-2.75c-0.3 0-0.533-0.183-0.7-0.55v0l-6.75-16.15c-0.133-0.367-0.5-0.55-1.1-0.55v0h-9.45c-0.233 0-0.39 0.05-0.47 0.15-0.087 0.1-0.13 0.233-0.13 0.4v0 16c0 0.467-0.217 0.7-0.65 0.7v0h-2.45c-0.267 0-0.44-0.05-0.52-0.15-0.087-0.1-0.13-0.25-0.13-0.45v0-35.9c0-0.4 0.183-0.6 0.55-0.6v0h13.5c3.8 0 6.75 0.79 8.85 2.37 2.1 1.587 3.15 3.947 3.15 7.08v0c0 1.933-0.367 3.557-1.1 4.87-0.733 1.32-1.673 2.363-2.82 3.13-1.153 0.767-2.313 1.317-3.48 1.65v0c-0.233 0.033-0.3 0.183-0.2 0.45v0zM49.5 20.95v0c3.2 0 5.61-0.56 7.23-1.68 1.613-1.113 2.42-2.92 2.42-5.42v0c0-2.367-0.7-4.117-2.1-5.25-1.4-1.133-3.45-1.7-6.15-1.7v0h-9.5c-0.433 0-0.65 0.15-0.65 0.45v0 13.05c0 0.367 0.15 0.55 0.45 0.55v0zM68 41.1v0c-0.167 0-0.29-0.067-0.37-0.2-0.087-0.133-0.097-0.3-0.03-0.5v0l13.05-35.75c0.1-0.233 0.217-0.4 0.35-0.5 0.133-0.1 0.317-0.15 0.55-0.15v0h3c0.567 0 0.917 0.217 1.05 0.65v0l12.9 35.75c0.1 0.167 0.1 0.323 0 0.47-0.1 0.153-0.25 0.23-0.45 0.23v0h-2.55c-0.4 0-0.65-0.15-0.75-0.45v0l-3.7-10.3c-0.033-0.133-0.083-0.233-0.15-0.3-0.067-0.067-0.2-0.1-0.4-0.1v0h-15.2c-0.267 0-0.45 0.133-0.55 0.4v0l-3.8 10.35c-0.033 0.133-0.1 0.233-0.2 0.3-0.1 0.067-0.25 0.1-0.45 0.1v0zM76.25 26.9h13.15c0.367 0 0.483-0.183 0.35-0.55v0l-6.45-17.75c-0.133-0.3-0.257-0.45-0.37-0.45-0.12 0-0.247 0.167-0.38 0.5v0l-6.55 17.75c-0.133 0.333-0.05 0.5 0.25 0.5zM117.7 3.5v0c1.6 0 3.16 0.267 4.68 0.8 1.513 0.533 2.88 1.267 4.1 2.2 1.213 0.933 2.213 2.007 3 3.22 0.78 1.22 1.253 2.513 1.42 3.88v0c0.033 0.2 0.033 0.34 0 0.42-0.033 0.087-0.15 0.13-0.35 0.13v0l-2.9 0.25c-0.133 0.033-0.233 0.007-0.3-0.08-0.067-0.08-0.117-0.203-0.15-0.37v0c-0.533-2.2-1.633-3.99-3.3-5.37-1.667-1.387-3.7-2.08-6.1-2.08v0c-3.7 0-6.54 1.357-8.52 4.07-1.987 2.72-2.98 6.747-2.98 12.08v0c0 5.167 0.983 9.1 2.95 11.8 1.967 2.7 4.933 4.05 8.9 4.05v0c2.433 0 4.467-0.593 6.1-1.78 1.633-1.18 2.95-3.053 3.95-5.62v0c0.067-0.133 0.217-0.183 0.45-0.15v0l2.45 0.65c0.067 0.033 0.127 0.083 0.18 0.15 0.047 0.067 0.053 0.2 0.02 0.4v0c-0.3 1-0.733 1.967-1.3 2.9-0.567 0.933-1.25 1.8-2.05 2.6-0.8 0.8-1.717 1.5-2.75 2.1-1.033 0.6-2.157 1.06-3.37 1.38-1.22 0.313-2.53 0.47-3.93 0.47v0c-3.233 0-6.017-0.76-8.35-2.28-2.333-1.513-4.117-3.687-5.35-6.52-1.233-2.833-1.85-6.233-1.85-10.2v0c0-4 0.617-7.427 1.85-10.28 1.233-2.847 2.993-5.03 5.28-6.55 2.28-1.513 5.02-2.27 8.22-2.27zM166.1 40.55v0c0.067 0.167 0.083 0.3 0.05 0.4-0.033 0.1-0.133 0.15-0.3 0.15v0h-3.2c-0.367 0-0.617-0.117-0.75-0.35v0l-11.8-19.2c-0.2-0.267-0.433-0.25-0.7 0.05v0l-6.1 6.85c-0.267 0.267-0.4 0.567-0.4 0.9v0 11.15c0 0.4-0.217 0.6-0.65 0.6v0h-2.45c-0.233 0-0.4-0.043-0.5-0.13-0.1-0.08-0.15-0.237-0.15-0.47v0-36c0-0.333 0.167-0.5 0.5-0.5v0h2.8c0.3 0 0.45 0.167 0.45 0.5v0 19.25c0 0.2 0.033 0.307 0.1 0.32 0.067 0.02 0.183-0.053 0.35-0.22v0l17.5-19.5c0.1-0.133 0.21-0.223 0.33-0.27 0.113-0.053 0.287-0.08 0.52-0.08v0h2.8c0.233 0 0.377 0.057 0.43 0.17 0.047 0.12 0.003 0.247-0.13 0.38v0l-12.2 13.5c-0.1 0.133-0.1 0.3 0 0.5v0zM173.65 4.6v0c0-0.4 0.183-0.6 0.55-0.6v0h21.75c0.3 0 0.45 0.15 0.45 0.45v0l-0.05 2.05c0 0.333-0.167 0.5-0.5 0.5v0h-17.85c-0.4 0-0.6 0.183-0.6 0.55v0 12.85c0 0.333 0.183 0.5 0.55 0.5v0h13.55c0.3 0 0.45 0.15 0.45 0.45v0 2.1c0 0.133-0.023 0.233-0.07 0.3-0.053 0.067-0.18 0.1-0.38 0.1v0h-13.6c-0.333 0-0.5 0.167-0.5 0.5v0 13.25c0 0.333 0.167 0.5 0.5 0.5v0h18.65c0.367 0 0.55 0.15 0.55 0.45v0 2.1c0 0.133-0.04 0.24-0.12 0.32-0.087 0.087-0.213 0.13-0.38 0.13v0h-22.35c-0.4 0-0.6-0.2-0.6-0.6v0zM230.35 40.25v0c0.067 0.2 0.05 0.39-0.05 0.57-0.1 0.187-0.25 0.28-0.45 0.28v0h-2.75c-0.3 0-0.533-0.183-0.7-0.55v0l-6.75-16.15c-0.133-0.367-0.5-0.55-1.1-0.55v0h-9.45c-0.233 0-0.39 0.05-0.47 0.15-0.087 0.1-0.13 0.233-0.13 0.4v0 16c0 0.467-0.217 0.7-0.65 0.7v0h-2.45c-0.267 0-0.44-0.05-0.52-0.15-0.087-0.1-0.13-0.25-0.13-0.45v0-35.9c0-0.4 0.183-0.6 0.55-0.6v0h13.5c3.8 0 6.75 0.79 8.85 2.37 2.1 1.587 3.15 3.947 3.15 7.08v0c0 1.933-0.367 3.557-1.1 4.87-0.733 1.32-1.673 2.363-2.82 3.13-1.153 0.767-2.313 1.317-3.48 1.65v0c-0.233 0.033-0.3 0.183-0.2 0.45v0zM217.25 20.95v0c3.2 0 5.61-0.56 7.23-1.68 1.613-1.113 2.42-2.92 2.42-5.42v0c0-2.367-0.7-4.117-2.1-5.25-1.4-1.133-3.45-1.7-6.15-1.7v0h-9.5c-0.433 0-0.65 0.15-0.65 0.45v0 13.05c0 0.367 0.15 0.55 0.45 0.55v0z" fill="#a855f7" fill-rule="nonzero" stroke="none" stroke-width="1" stroke-linecap="butt" stroke-linejoin="miter" stroke-miterlimit="10" stroke-dasharray="" stroke-dashoffset="0" font-family="none" font-weight="none" font-size="none" text-anchor="none" style="mix-blend-mode: normal" data-fill-palette-color="primary" opacity="1"></path></g></svg></g></svg></g></svg></g></svg></g></svg></g></svg></g></svg></g><defs></defs></svg><rect width="395.52" height="247.2" fill="none" stroke="none" visibility="hidden"></rect></g></svg></g></svg>